<svg width="16" height="18" viewBox="0 0 16 18" fill="none" xmlns="http://www.w3.org/2000/svg">
<path fill-rule="evenodd" clip-rule="evenodd" d="M9.24101 4.44298C9.0747 3.68545 9.18435 2.89343 9.55019 2.20957C9.91604 1.52571 10.514 0.994948 11.2365 0.712885C11.959 0.430823 12.7584 0.415993 13.4908 0.671069C14.2232 0.926144 14.8405 1.43436 15.2315 2.10418C15.6224 2.774 15.7614 3.56141 15.6233 4.32459C15.4852 5.08776 15.0791 5.77655 14.4782 6.26689C13.8773 6.75723 13.1211 7.0169 12.3457 6.99914C11.5704 6.98137 10.8268 6.68733 10.249 6.16998L6.59201 8.30498C6.69203 8.76224 6.69203 9.23571 6.59201 9.69298L10.252 11.826C10.8069 11.3303 11.5151 11.0401 12.2583 11.0038C13.0014 10.9674 13.7345 11.1872 14.3352 11.6263C14.9358 12.0654 15.3676 12.6974 15.5584 13.4165C15.7491 14.1357 15.6874 14.8985 15.3834 15.5777C15.0794 16.2568 14.5516 16.811 13.8882 17.1478C13.2248 17.4846 12.4658 17.5836 11.7382 17.4282C11.0106 17.2728 10.3583 16.8724 9.89032 16.294C9.42236 15.7155 9.16704 14.994 9.16701 14.25C9.16678 14.0146 9.19193 13.7799 9.24201 13.55L5.58401 11.42C5.11659 11.8383 4.53807 12.1124 3.9183 12.2091C3.29852 12.3058 2.66399 12.2211 2.09133 11.9651C1.51866 11.7091 1.03235 11.2928 0.691104 10.7665C0.349859 10.2401 0.168274 9.62626 0.168274 8.99898C0.168274 8.3717 0.349859 7.75783 0.691104 7.23149C1.03235 6.70515 1.51866 6.28885 2.09133 6.03286C2.66399 5.77686 3.29852 5.69211 3.9183 5.78884C4.53807 5.88557 5.11659 6.15965 5.58401 6.57798L9.24101 4.44298ZM11.3 13.7C11.1573 13.9899 11.1326 14.3239 11.2313 14.6316C11.33 14.9393 11.5443 15.1967 11.829 15.3496C12.1138 15.5024 12.4467 15.5387 12.7577 15.4509C13.0687 15.363 13.3334 15.1579 13.4961 14.8787C13.6589 14.5995 13.7068 14.268 13.63 13.9542C13.5531 13.6403 13.3574 13.3685 13.084 13.1961C12.8107 13.0237 12.4811 12.9641 12.1647 13.03C11.8484 13.0958 11.5699 13.2819 11.388 13.549C11.376 13.5736 11.363 13.5986 11.349 13.624C11.333 13.65 11.317 13.675 11.3 13.7ZM4.47501 8.33398C4.33023 8.10473 4.11489 7.92872 3.86141 7.83246C3.60794 7.73621 3.33005 7.72491 3.06959 7.80027C2.80914 7.87563 2.58021 8.03356 2.4173 8.2503C2.25438 8.46704 2.16629 8.73084 2.16629 9.00198C2.16629 9.27312 2.25438 9.53691 2.4173 9.75365C2.58021 9.97039 2.80914 10.1283 3.06959 10.2037C3.33005 10.279 3.60794 10.2677 3.86141 10.1715C4.11489 10.0752 4.33023 9.89922 4.47501 9.66998L4.49901 9.62798C4.50701 9.61398 4.51601 9.59898 4.52501 9.58598C4.62183 9.40457 4.67248 9.2021 4.67248 8.99648C4.67248 8.79085 4.62183 8.58838 4.52501 8.40698C4.51701 8.39498 4.50901 8.38298 4.50201 8.37098L4.47501 8.33398ZM11.356 4.41098C11.5154 4.66685 11.7619 4.85651 12.0501 4.945C12.3382 5.0335 12.6487 5.01488 12.9242 4.89257C13.1997 4.77025 13.4218 4.55249 13.5494 4.2794C13.6771 4.00631 13.7017 3.69628 13.6188 3.40644C13.536 3.1166 13.3512 2.86648 13.0984 2.70214C12.8457 2.53781 12.5421 2.47035 12.2436 2.51218C11.945 2.554 11.6717 2.70231 11.4738 2.92977C11.276 3.15723 11.167 3.44852 11.167 3.74998C11.1656 3.95955 11.2175 4.16604 11.318 4.34998L11.337 4.38198L11.356 4.41598V4.41098Z" fill="#14171A"/>
</svg>
